<svg xmlns="http://www.w3.org/2000/svg" xmlns:xlink="http://www.w3.org/1999/xlink" width="20" height="16" viewBox="0 0 20 16"><defs><path id="baepa" d="M718 497.35v15.3c0 .2-.15.35-.34.35h-19.32a.35.35 0 0 1-.34-.35v-15.3c0-.2.15-.35.34-.35h19.32c.19 0 .34.16.34.35zm-.69.35h-18.62v14.6h18.62zm-15.71 5.06c0-1.07.86-1.93 1.92-1.93s1.92.86 1.92 1.93c0 1.07-.86 1.94-1.92 1.94a1.93 1.93 0 0 1-1.92-1.94zm.69 0c0 .69.55 1.24 1.23 1.24.68 0 1.23-.55 1.23-1.24 0-.68-.55-1.24-1.23-1.24-.68 0-1.23.56-1.23 1.24zm-2.14 8.04a.35.35 0 0 1 .04-.5l5.86-5.2a.34.34 0 0 1 .48 0l1.63 1.66 3.38-3.73a.34.34 0 0 1 .49-.03l4.13 3.83c.14.13.15.35.03.5a.34.34 0 0 1-.5.01l-3.88-3.59-3.16 3.5 1.66 1.67c.13.14.13.36 0 .5a.34.34 0 0 1-.5 0l-3.54-3.59-5.63 5a.34.34 0 0 1-.49-.03z"/></defs><g><g transform="translate(-698 -497)"><use fill="#003869" xlink:href="#baepa"/></g></g></svg>