<svg xmlns="http://www.w3.org/2000/svg" xmlns:xlink="http://www.w3.org/1999/xlink" width="14" height="18" viewBox="0 0 14 18"><defs><path id="jfa6a" d="M1050 278.36v.65a1 1 0 0 1-.64.91c-.12 2.27-.81 13.21-.84 13.7a.41.41 0 0 1-.42.38h-10.2a.41.41 0 0 1-.42-.38c-.03-.49-.72-11.43-.84-13.7a1 1 0 0 1-.64-.91v-.65c0-.55.47-1 1.05-1h3.88V277c0-.55.47-1 1.04-1h2.06c.57 0 1.03.45 1.03 1v.37h3.9c.57 0 1.04.44 1.04.99zm-8.23-1.36v.37h2.45V277a.2.2 0 0 0-.2-.2h-2.05a.2.2 0 0 0-.2.2zm-4.93 1.36v.65c0 .1.1.19.2.19h11.91c.11 0 .2-.09.2-.19v-.65c0-.1-.09-.2-.2-.2h-11.9c-.12 0-.21.1-.21.2zm11.67 1.64h-11.02c.12 2.25.68 11.24.8 13.2h9.41c.12-1.96.69-10.95.81-13.2zm-5.51 1.44c.23 0 .42.17.42.4v10.06c0 .22-.19.4-.42.4a.41.41 0 0 1-.42-.4v-10.06c0-.23.19-.4.42-.4zm-2.29 10.44a.4.4 0 0 1-.42.42.41.41 0 0 1-.41-.38l-.56-10.05a.4.4 0 0 1 .4-.42c.23-.01.43.16.44.38zm5.96-10l-.55 10.04a.41.41 0 0 1-.44.38.4.4 0 0 1-.4-.42l.55-10.05c.02-.22.21-.4.45-.38.23.01.4.2.4.42z"/></defs><g><g transform="translate(-1036 -276)"><use xlink:href="#jfa6a"/></g></g></svg>